<?xml version="1.0"?>
<svg width="640" height="480" xmlns="http://www.w3.org/2000/svg" xmlns:svg="http://www.w3.org/2000/svg">
 <!-- Created with SVG-edit - https://github.com/SVG-Edit/svgedit-->
 <g class="layer">
  <title>Layer 1</title>
  <rect fill="#ffffff" height="136" id="svg_2" stroke="#000000" stroke-width="5" width="241.000001" x="7.499999" y="6.5"/>
  <text fill="#000000" font-family="serif" font-size="24" id="svg_1" stroke="#000000" stroke-width="0" text-anchor="middle" transform="matrix(3.68546 0 0 5.07692 -879.075 -911.269)" x="273.9243" xml:space="preserve" y="202.166666">ALV</text>
  <ellipse cx="226.5" cy="120.5" fill="#7f003f" id="svg_3" rx="13" ry="13" stroke="#7f003f" stroke-dasharray="null" stroke-linecap="null" stroke-linejoin="null" stroke-width="5"/>
  <polygon cx="95.5" cy="155.5" fill="#7f003f" id="svg_4" orient="point" point="5" points="35.5,17.193954467773438 39.80401611328125,29.576034545898438 52.91007995605469,29.843124389648438 42.46403503417969,37.76275634765625 46.260009765625,50.30989074707031 35.5,42.822418212890625 24.739990234375,50.30989074707031 28.535964965820312,37.76275634765625 18.089920043945312,29.843124389648438 31.19598388671875,29.576034545898438 35.5,17.193954467773438 39.80401611328125,29.576034545898438 " r="18.30604" r2="7.322416" shape="star" stroke="#7f003f" stroke-width="5" strokeWidth="5" strokecolor="#7f003f"/>
  <polygon cx="174.5" cy="158.5" fill="#7f003f" id="svg_5" orient="point" point="5" points="-6.5,-5.5 -6.5,-5.5 -6.5,-5.5 -6.5,-5.5 -6.5,-5.5 -6.5,-5.5 -6.5,-5.5 -6.5,-5.5 -6.5,-5.5 -6.5,-5.5 -6.5,-5.5 -6.5,-5.5 " r="0" r2="0" shape="star" stroke="#7f003f" stroke-width="5" strokeWidth="5" strokecolor="#7f003f"/>
 </g>
</svg>